<svg width="30" height="30" viewBox="0 0 30 30" fill="none" xmlns="http://www.w3.org/2000/svg">
<path fill-rule="evenodd" clip-rule="evenodd" d="M26.5 15.25C26.5 9.03906 21.4609 4 15.25 4C9.03906 4 4 9.03906 4 15.25C4 21.4609 9.03906 26.5 15.25 26.5C21.4609 26.5 26.5 21.4609 26.5 15.25ZM15.5 19.3333C15.5 19.7015 15.2015 20 14.8333 20C14.4652 20 14.1667 19.7015 14.1667 19.3333C14.1667 18.9652 14.4652 18.6667 14.8333 18.6667C15.2015 18.6667 15.5 18.9652 15.5 19.3333ZM14.3334 16.6667C14.3334 16.9427 14.5574 17.1667 14.8334 17.1667C15.1094 17.1667 15.3334 16.9427 15.3334 16.6667V15.994C15.3334 15.782 15.4674 15.592 15.6674 15.5221C16.7887 15.1261 17.6667 13.9454 17.6667 12.8334C17.6667 11.2714 16.396 10 14.8334 10C13.2708 10 12 11.2714 12 12.8334C12 13.1094 12.224 13.3334 12.5 13.3334C12.776 13.3334 13 13.1094 13 12.8334C13 11.822 13.822 11 14.8334 11C15.8447 11 16.6667 11.822 16.6667 12.8334C16.6667 13.4493 16.1313 14.2981 15.3347 14.5787C14.7361 14.79 14.3334 15.3588 14.3334 15.9934V16.6667Z" fill="#15294B"/>
</svg>
