<svg width="30" height="30" viewBox="0 0 30 30" fill="none" xmlns="http://www.w3.org/2000/svg">
<path fill-rule="evenodd" clip-rule="evenodd" d="M15.25 4C21.4609 4 26.5 9.03906 26.5 15.25C26.5 21.4609 21.4609 26.5 15.25 26.5C9.03906 26.5 4 21.4609 4 15.25C4 9.03906 9.03906 4 15.25 4ZM18.1022 11.7512L20.8773 14.6913C21.0409 14.8647 21.0409 15.1356 20.8773 15.3091L18.1023 18.2493C18.0139 18.3427 17.8945 18.3901 17.775 18.3901C17.6642 18.3901 17.5531 18.3495 17.4661 18.2674C17.2855 18.0967 17.2771 17.812 17.4478 17.6313L19.9314 15L17.4478 12.3689C17.2771 12.1882 17.2855 11.9034 17.4661 11.7328C17.647 11.5621 17.9317 11.5704 18.1022 11.7512ZM12.5524 17.6312L10.069 15L12.5524 12.3689C12.7229 12.1881 12.7147 11.9033 12.5339 11.7327C12.3533 11.5622 12.0683 11.5704 11.8978 11.7512L9.12276 14.6912C8.95912 14.8646 8.95912 15.1357 9.12276 15.3091L11.8979 18.2492C11.9864 18.343 12.1057 18.3902 12.2252 18.3902C12.3359 18.3902 12.4471 18.3494 12.5339 18.2674C12.7148 18.0968 12.7229 17.812 12.5524 17.6312ZM15.2152 10.612C15.2527 10.3664 15.4825 10.1978 15.728 10.235C15.9737 10.2725 16.1425 10.5022 16.105 10.7479L14.785 19.3879C14.7509 19.6106 14.5592 19.77 14.3407 19.77C14.318 19.77 14.2952 19.7683 14.2721 19.7649C14.0264 19.7274 13.8577 19.4977 13.8952 19.252L15.2152 10.612Z" fill="#15294B"/>
</svg>
