<svg width="30" height="30" viewBox="0 0 30 30" fill="none" xmlns="http://www.w3.org/2000/svg">
<path fill-rule="evenodd" clip-rule="evenodd" d="M15 3.75C21.2109 3.75 26.25 8.78906 26.25 15C26.25 21.2109 21.2109 26.25 15 26.25C8.78906 26.25 3.75 21.2109 3.75 15C3.75 8.78906 8.78906 3.75 15 3.75ZM19.3811 15.5449L12.675 19.596C12.5789 19.6536 12.4692 19.6846 12.3571 19.6858C12.2451 19.687 12.1347 19.6584 12.0374 19.6028C11.9401 19.5473 11.8593 19.4669 11.8033 19.3698C11.7473 19.2728 11.7181 19.1626 11.7188 19.0505V10.9493C11.7181 10.8373 11.7473 10.7271 11.8033 10.63C11.8593 10.533 11.9401 10.4525 12.0374 10.397C12.1347 10.3415 12.2451 10.3129 12.3571 10.3141C12.4692 10.3153 12.5789 10.3462 12.675 10.4038L19.3811 14.455C19.4745 14.512 19.5518 14.592 19.6054 14.6874C19.659 14.7829 19.6872 14.8905 19.6872 14.9999C19.6872 15.1094 19.659 15.217 19.6054 15.3124C19.5518 15.4079 19.4745 15.4879 19.3811 15.5449Z" fill="#15294B"/>
<path d="M12.675 19.596L12.8806 19.9392L12.8818 19.9384L12.675 19.596ZM19.3811 15.5449L19.5879 15.8872L19.5892 15.8865L19.3811 15.5449ZM12.0374 19.6028L11.8392 19.9503H11.8392L12.0374 19.6028ZM11.7188 19.0505L12.1188 19.0529V19.0505H11.7188ZM11.7188 10.9493H12.1188L12.1188 10.947L11.7188 10.9493ZM12.0374 10.397L11.8392 10.0496L11.8392 10.0496L12.0374 10.397ZM12.3571 10.3141L12.3614 9.91408H12.3614L12.3571 10.3141ZM12.675 10.4038L12.8818 10.0614L12.8806 10.0607L12.675 10.4038ZM19.3811 14.455L19.5892 14.1134L19.5879 14.1126L19.3811 14.455ZM19.6054 14.6874L19.9541 14.4915L19.9541 14.4915L19.6054 14.6874ZM19.6054 15.3124L19.9541 15.5083V15.5083L19.6054 15.3124ZM26.65 15C26.65 8.56815 21.4319 3.35 15 3.35V4.15C20.99 4.15 25.85 9.00998 25.85 15H26.65ZM15 26.65C21.4319 26.65 26.65 21.4319 26.65 15H25.85C25.85 20.99 20.99 25.85 15 25.85V26.65ZM3.35 15C3.35 21.4319 8.56815 26.65 15 26.65V25.85C9.00998 25.85 4.15 20.99 4.15 15H3.35ZM15 3.35C8.56815 3.35 3.35 8.56815 3.35 15H4.15C4.15 9.00998 9.00998 4.15 15 4.15V3.35ZM12.8818 19.9384L19.5879 15.8872L19.1742 15.2025L12.4682 19.2537L12.8818 19.9384ZM12.3614 20.0858C12.5444 20.0838 12.7236 20.0332 12.8806 19.9392L12.4694 19.2529C12.4342 19.274 12.394 19.2854 12.3529 19.2858L12.3614 20.0858ZM11.8392 19.9503C11.9982 20.041 12.1784 20.0877 12.3614 20.0858L12.3529 19.2858C12.3118 19.2863 12.2713 19.2758 12.2356 19.2554L11.8392 19.9503ZM11.4568 19.5697C11.5483 19.7283 11.6802 19.8596 11.8392 19.9503L12.2356 19.2554C12.1999 19.235 12.1703 19.2056 12.1497 19.17L11.4568 19.5697ZM11.3188 19.0482C11.3177 19.2312 11.3653 19.4112 11.4568 19.5697L12.1497 19.17C12.1292 19.1344 12.1185 19.0939 12.1188 19.0529L11.3188 19.0482ZM11.3188 10.9493V19.0505H12.1188V10.9493H11.3188ZM11.4568 10.4301C11.3653 10.5886 11.3177 10.7686 11.3188 10.9517L12.1188 10.947C12.1185 10.9059 12.1292 10.8655 12.1497 10.8299L11.4568 10.4301ZM11.8392 10.0496C11.6802 10.1403 11.5483 10.2716 11.4568 10.4301L12.1497 10.8299C12.1703 10.7943 12.1999 10.7648 12.2356 10.7445L11.8392 10.0496ZM12.3614 9.91408C12.1784 9.91213 11.9982 9.9589 11.8392 10.0496L12.2356 10.7445C12.2713 10.7241 12.3118 10.7136 12.3529 10.714L12.3614 9.91408ZM12.8806 10.0607C12.7236 9.96664 12.5444 9.91604 12.3614 9.91408L12.3529 10.714C12.394 10.7145 12.4342 10.7258 12.4694 10.747L12.8806 10.0607ZM19.5879 14.1126L12.8818 10.0615L12.4682 10.7462L19.1742 14.7974L19.5879 14.1126ZM19.9541 14.4915C19.8669 14.3363 19.7413 14.2061 19.5892 14.1134L19.173 14.7966C19.2078 14.8179 19.2367 14.8477 19.2567 14.8833L19.9541 14.4915ZM20.0872 14.9999C20.0872 14.8219 20.0414 14.6468 19.9541 14.4915L19.2567 14.8833C19.2767 14.9189 19.2872 14.9591 19.2872 14.9999H20.0872ZM19.9541 15.5083C20.0414 15.3531 20.0872 15.178 20.0872 14.9999H19.2872C19.2872 15.0408 19.2767 15.0809 19.2567 15.1165L19.9541 15.5083ZM19.5892 15.8865C19.7412 15.7938 19.8669 15.6636 19.9541 15.5083L19.2567 15.1165C19.2367 15.1521 19.2078 15.182 19.173 15.2033L19.5892 15.8865Z" fill="#15294B"/>
</svg>
