<svg width="30" height="30" viewBox="0 0 30 30" fill="none" xmlns="http://www.w3.org/2000/svg">
<path d="M26.5 15.25C26.5 9.03906 21.4609 4 15.25 4C9.03906 4 4 9.03906 4 15.25C4 21.4609 9.03906 26.5 15.25 26.5C21.4609 26.5 26.5 21.4609 26.5 15.25Z" stroke="#15294B" stroke-width="0.8" stroke-miterlimit="10"/>
<path d="M20.8774 14.6907L18.1024 11.7506C17.9319 11.5697 17.6472 11.5615 17.4663 11.7322C17.2857 11.9027 17.2773 12.1876 17.448 12.3683L19.9315 14.9993L17.448 17.6307C17.2773 17.8114 17.2857 18.0961 17.4663 18.2668C17.5533 18.3489 17.6644 18.3895 17.7751 18.3895C17.8947 18.3895 18.0141 18.3421 18.1024 18.2487L20.8775 15.3085C21.0411 15.135 21.0411 14.864 20.8774 14.6907Z" fill="#15294B"/>
<path d="M12.5523 17.6306L10.0689 14.9994L12.5523 12.3682C12.7229 12.1875 12.7146 11.9026 12.5339 11.7321C12.3533 11.5615 12.0683 11.5698 11.8977 11.7505L9.12273 14.6905C8.95909 14.8639 8.95909 15.135 9.12273 15.3084L11.8979 18.2486C11.9864 18.3423 12.1056 18.3896 12.2252 18.3896C12.3359 18.3896 12.4471 18.3488 12.5339 18.2667C12.7148 18.0962 12.7229 17.8113 12.5523 17.6306Z" fill="#15294B"/>
<path d="M15.7282 10.2356C15.4827 10.1984 15.2529 10.367 15.2154 10.6126L13.8954 19.2526C13.8579 19.4983 14.0266 19.728 14.2723 19.7655C14.2954 19.7689 14.3182 19.7706 14.3409 19.7706C14.5594 19.7706 14.7511 19.6111 14.7852 19.3885L16.1052 10.7485C16.1427 10.5028 15.9739 10.2731 15.7282 10.2356Z" fill="#15294B" stroke="#15294B" stroke-width="0.2"/>
</svg>
