<?xml version="1.0" encoding="iso-8859-1"?>
<!-- Generator: Adobe Illustrator 19.0.0, SVG Export Plug-In . SVG Version: 6.00 Build 0)  -->
<svg version="1.1" id="Capa_1" xmlns="http://www.w3.org/2000/svg" xmlns:xlink="http://www.w3.org/1999/xlink" width="50" height="50"
	 viewBox="0 0 512 512" style="enable-background:new 0 0 512 512; fill: #0096ff;" xml:space="preserve">
<g>
	<g>
		<path d="M467,30h-15V15c0-8.284-6.716-15-15-15s-15,6.716-15,15v15h-61V15c0-8.284-6.716-15-15-15s-15,6.716-15,15v15h-60V15
			c0-8.284-6.716-15-15-15s-15,6.716-15,15v15h-60V15c0-8.284-6.716-15-15-15s-15,6.716-15,15v15H90V15c0-8.284-6.716-15-15-15
			S60,6.716,60,15v15H45C20.187,30,0,50.187,0,75v422c0,8.284,6.716,15,15,15h482c8.284,0,15-6.716,15-15V75
			C512,50.187,491.813,30,467,30z M482,482H30V150h452V482z M482,120H30V75c0-8.271,6.729-15,15-15h15v15c0,8.284,6.716,15,15,15
			s15-6.716,15-15V60h61v15c0,8.284,6.716,15,15,15s15-6.716,15-15V60h60v15c0,8.284,6.716,15,15,15s15-6.716,15-15V60h60v15
			c0,8.284,6.716,15,15,15s15-6.716,15-15V60h61v15c0,8.284,6.716,15,15,15s15-6.716,15-15V60h15c8.271,0,15,6.729,15,15V120z"/>
	</g>
</g>
<g>
	<g>
		<path d="M256,181c-74.439,0-135,60.561-135,135s60.561,135,135,135s135-60.561,135-135S330.439,181,256,181z M256,421
			c-57.897,0-105-47.103-105-105c0-57.897,47.103-105,105-105c57.897,0,105,47.103,105,105C361,373.897,313.897,421,256,421z"/>
	</g>
</g>
<g>
	<g>
		<path d="M316,301h-45v-45c0-8.284-6.716-15-15-15s-15,6.716-15,15v60c0,8.284,6.716,15,15,15h60c8.284,0,15-6.716,15-15
			S324.284,301,316,301z"/>
	</g>
</g>
<g>
</g>
<g>
</g>
<g>
</g>
<g>
</g>
<g>
</g>
<g>
</g>
<g>
</g>
<g>
</g>
<g>
</g>
<g>
</g>
<g>
</g>
<g>
</g>
<g>
</g>
<g>
</g>
<g>
</g>
</svg>
