<svg width="18" height="18" viewBox="0 0 18 18" fill="none" xmlns="http://www.w3.org/2000/svg">
<path d="M9 1.96875C5.12297 1.96875 1.96875 5.12297 1.96875 9C1.96875 12.877 5.12297 16.0312 9 16.0312C12.877 16.0312 16.0312 12.877 16.0312 9C16.0312 5.12297 12.877 1.96875 9 1.96875ZM9 4.85156C9.18078 4.85156 9.35751 4.90517 9.50783 5.00561C9.65814 5.10605 9.7753 5.24881 9.84448 5.41583C9.91367 5.58285 9.93177 5.76664 9.8965 5.94395C9.86123 6.12126 9.77417 6.28413 9.64634 6.41196C9.51851 6.5398 9.35564 6.62685 9.17833 6.66212C9.00101 6.69739 8.81723 6.67929 8.6502 6.61011C8.48318 6.54093 8.34042 6.42377 8.23998 6.27345C8.13955 6.12313 8.08594 5.94641 8.08594 5.76562C8.08594 5.5232 8.18224 5.2907 8.35366 5.11929C8.52508 4.94787 8.75758 4.85156 9 4.85156ZM10.6875 12.7969H7.59375C7.44457 12.7969 7.30149 12.7376 7.196 12.6321C7.09051 12.5266 7.03125 12.3836 7.03125 12.2344C7.03125 12.0852 7.09051 11.9421 7.196 11.8366C7.30149 11.7311 7.44457 11.6719 7.59375 11.6719H8.57812V8.57812H8.01562C7.86644 8.57812 7.72337 8.51886 7.61788 8.41337C7.51239 8.30788 7.45312 8.16481 7.45312 8.01562C7.45312 7.86644 7.51239 7.72337 7.61788 7.61788C7.72337 7.51239 7.86644 7.45312 8.01562 7.45312H9.14062C9.28981 7.45312 9.43288 7.51239 9.53837 7.61788C9.64386 7.72337 9.70312 7.86644 9.70312 8.01562V11.6719H10.6875C10.8367 11.6719 10.9798 11.7311 11.0852 11.8366C11.1907 11.9421 11.25 12.0852 11.25 12.2344C11.25 12.3836 11.1907 12.5266 11.0852 12.6321C10.9798 12.7376 10.8367 12.7969 10.6875 12.7969Z" fill="url(#paint0_linear_2875_43551)"/>
<defs>
<linearGradient id="paint0_linear_2875_43551" x1="1.96875" y1="7.94531" x2="16.0313" y2="7.94531" gradientUnits="userSpaceOnUse">
<stop stop-color="#0096FF"/>
<stop offset="1" stop-color="#0048FF"/>
</linearGradient>
</defs>
</svg>
