<svg width="18" height="18" viewBox="0 0 18 18" fill="none" xmlns="http://www.w3.org/2000/svg">
<path d="M9 1.6875C4.96793 1.6875 1.6875 4.96793 1.6875 9C1.6875 13.0321 4.96793 16.3125 9 16.3125C13.0321 16.3125 16.3125 13.0321 16.3125 9C16.3125 4.96793 13.0321 1.6875 9 1.6875ZM11.6286 9.32695L7.605 11.7577C7.54733 11.7922 7.4815 11.8108 7.41427 11.8115C7.34704 11.8122 7.28084 11.7951 7.22244 11.7617C7.16404 11.7284 7.11556 11.6802 7.08196 11.6219C7.04836 11.5637 7.03086 11.4976 7.03125 11.4304V6.56965C7.03086 6.50242 7.04836 6.43629 7.08196 6.37806C7.11556 6.31982 7.16404 6.27157 7.22244 6.23826C7.28084 6.20495 7.34704 6.18777 7.41427 6.18849C7.4815 6.1892 7.54733 6.20779 7.605 6.24234L11.6286 8.67305C11.6847 8.70722 11.7311 8.75524 11.7632 8.8125C11.7954 8.86976 11.8123 8.93433 11.8123 9C11.8123 9.06567 11.7954 9.13024 11.7632 9.1875C11.7311 9.24476 11.6847 9.29278 11.6286 9.32695Z" fill="url(#paint0_linear_2875_44087)"/>
<defs>
<linearGradient id="paint0_linear_2875_44087" x1="1.6875" y1="7.90313" x2="16.3125" y2="7.90313" gradientUnits="userSpaceOnUse">
<stop stop-color="#0096FF"/>
<stop offset="1" stop-color="#0048FF"/>
</linearGradient>
</defs>
</svg>
