<svg width="30" height="30" viewBox="0 0 30 30" fill="none" xmlns="http://www.w3.org/2000/svg">
<path d="M26.25 15C26.25 8.78906 21.2109 3.75 15 3.75C8.78906 3.75 3.75 8.78906 3.75 15C3.75 21.2109 8.78906 26.25 15 26.25C21.2109 26.25 26.25 21.2109 26.25 15Z" stroke="#15294B" stroke-width="0.8" stroke-miterlimit="10"/>
<path d="M12.675 19.5965L19.3811 15.5453C19.4745 15.4883 19.5518 15.4083 19.6054 15.3129C19.659 15.2174 19.6872 15.1098 19.6872 15.0004C19.6872 14.8909 19.659 14.7833 19.6054 14.6879C19.5518 14.5924 19.4745 14.5124 19.3811 14.4554L12.675 10.4043C12.5789 10.3467 12.4692 10.3157 12.3571 10.3145C12.2451 10.3133 12.1347 10.3419 12.0374 10.3974C11.9401 10.453 11.8593 10.5334 11.8033 10.6304C11.7473 10.7275 11.7181 10.8377 11.7188 10.9498V19.051C11.7181 19.163 11.7473 19.2732 11.8033 19.3703C11.8593 19.4673 11.9401 19.5477 12.0374 19.6033C12.1347 19.6588 12.2451 19.6874 12.3571 19.6862C12.4692 19.685 12.5789 19.6541 12.675 19.5965Z" fill="#15294B"/>
</svg>
