<svg width="19" height="18" viewBox="0 0 19 18" fill="none" xmlns="http://www.w3.org/2000/svg">
<path d="M17.2188 13.5137C17.0525 13.5136 16.8882 13.4804 16.7363 13.4163C16.701 13.4015 16.6673 13.3833 16.6358 13.3622L13.5664 11.3154C13.4108 11.2116 13.2838 11.0738 13.196 10.9138C13.1083 10.7537 13.0625 10.576 13.0625 10.3957V7.6043C13.0625 7.42396 13.1083 7.24627 13.196 7.08621C13.2838 6.92615 13.4108 6.78842 13.5664 6.68461L16.6358 4.63781C16.6673 4.61666 16.701 4.59853 16.7363 4.58367C16.9171 4.50752 17.1151 4.47538 17.3124 4.49016C17.5096 4.50494 17.6999 4.56618 17.8658 4.66831C18.0317 4.77044 18.168 4.91023 18.2624 5.07497C18.3568 5.23972 18.4062 5.42419 18.4062 5.61164V12.3884C18.4062 12.6867 18.2811 12.9729 18.0584 13.1839C17.8357 13.3948 17.5337 13.5134 17.2188 13.5134V13.5137ZM9.94531 14.0625H3.11719C2.44814 14.0618 1.80669 13.8098 1.33361 13.3616C0.86052 12.9134 0.594438 12.3057 0.59375 11.6719V6.32812C0.594438 5.69429 0.86052 5.08661 1.33361 4.63842C1.80669 4.19023 2.44814 3.93815 3.11719 3.9375H9.96313C10.6274 3.93824 11.2643 4.18857 11.734 4.63358C12.2037 5.07858 12.468 5.68192 12.4688 6.31125V11.6719C12.4681 12.3057 12.202 12.9134 11.7289 13.3616C11.2558 13.8098 10.6144 14.0618 9.94531 14.0625Z" fill="url(#paint0_linear_2875_43291)"/>
<defs>
<linearGradient id="paint0_linear_2875_43291" x1="0.59375" y1="8.24063" x2="18.4063" y2="8.24063" gradientUnits="userSpaceOnUse">
<stop stop-color="#0096FF"/>
<stop offset="1" stop-color="#0048FF"/>
</linearGradient>
</defs>
</svg>
